<?xml version="1.0" encoding="utf-8"?>
<!-- Generator: Adobe Illustrator 16.2.0, SVG Export Plug-In . SVG Version: 6.00 Build 0)  -->
<!DOCTYPE svg PUBLIC "-//W3C//DTD SVG 1.1//EN" "http://www.w3.org/Graphics/SVG/1.1/DTD/svg11.dtd">
<svg version="1.1" id="Layer_1" xmlns="http://www.w3.org/2000/svg" xmlns:xlink="http://www.w3.org/1999/xlink" x="0px" y="0px"
	 width="100px" height="100px" viewBox="0 0 100 100" enable-background="new 0 0 100 100" xml:space="preserve">
<path fill="#FFFFFF" stroke="#231F20" stroke-miterlimit="10" d="M44.073,92h6.76c-0.7-19.899-6.741-37.875-16.198-51.298
	c6.196,11.91,9.845,26.5,9.845,42.265C44.479,86.026,44.34,89.04,44.073,92z"/>
<path fill="#FFFFFF" stroke="#231F20" stroke-miterlimit="10" d="M53.267,92h10.122c-0.65-7.228-0.99-14.588-0.99-22.059
	c0-21.495,2.777-42.097,7.865-61.166C60.349,33.71,54.324,61.961,53.267,92z"/>
<path fill="#FFFFFF" stroke="#231F20" stroke-miterlimit="10" d="M18,89.75c0-18.089,1.917-35.408,5.414-51.408
	C12.512,52.791,5.695,71.479,5.052,92H18.02C18.014,91.25,18,90.503,18,89.75z"/>
<path fill="#FFFFFF" stroke="#231F20" stroke-miterlimit="10" d="M48.038,26.934C42.134,46.471,38.727,68.571,38.52,92H25.552
	c-0.033-1.057-0.063-2.114-0.063-3.18C25.489,64.549,34.135,42.629,48.038,26.934z"/>
<path fill="#FFFFFF" stroke="#231F20" stroke-miterlimit="10" d="M22.271,14.935C42.469,34.008,57.855,60.857,65.725,92h20.703
	C76.896,58.489,53.331,30.665,22.271,14.935z"/>
<path fill="#FFFFFF" stroke="#231F20" stroke-miterlimit="10" d="M96.604,92h-7.727c-0.17-20.22-2.004-39.354-5.16-56.478
	C90.477,51.066,95.085,70.525,96.604,92z"/>
</svg>
