<?xml version="1.0" encoding="utf-8"?>
<!-- Generator: Adobe Illustrator 16.2.0, SVG Export Plug-In . SVG Version: 6.00 Build 0)  -->
<!DOCTYPE svg PUBLIC "-//W3C//DTD SVG 1.1//EN" "http://www.w3.org/Graphics/SVG/1.1/DTD/svg11.dtd">
<svg version="1.1" id="Layer_1" xmlns="http://www.w3.org/2000/svg" xmlns:xlink="http://www.w3.org/1999/xlink" x="0px" y="0px"
	 width="100px" height="100px" viewBox="0 0 100 100" enable-background="new 0 0 100 100" xml:space="preserve">
<g>
	<path fill="#FFFFFF" stroke="#231F20" stroke-miterlimit="10" d="M21.801,20.251c-4.512-0.327-8.391,0.294-11.439,2.81
		c-3.048,2.515-5.075,7.078-6.872,10.958c-1.798,3.88,2.643,17.137,7.413,21.279c4.771,4.143,12.438,6.306,19.977,9.201
		c7.54,2.896,18.514,0.608,24.526-2.024c6.015-2.634,8.368-5.636,10.084-10.07c1.716-4.435,2.62-11.901-0.228-14.843
		c-2.849-2.942-10.245-6.548-17.29-7.847c-7.045-1.299,0.037,0.94-7.75-2.749C32.436,23.277,26.312,20.578,21.801,20.251z"/>
	
		<line fill="none" stroke="#231F20" stroke-linecap="round" stroke-miterlimit="10" x1="11.56" y1="34.138" x2="14.853" y2="46.06"/>
	
		<line fill="none" stroke="#231F20" stroke-linecap="round" stroke-miterlimit="10" x1="25.768" y1="32.289" x2="29.443" y2="40.786"/>
	
		<line fill="none" stroke="#231F20" stroke-linecap="round" stroke-miterlimit="10" x1="50.963" y1="41.654" x2="46.896" y2="44.6"/>
	
		<line fill="none" stroke="#231F20" stroke-linecap="round" stroke-miterlimit="10" x1="32.697" y1="50.02" x2="36.654" y2="54.165"/>
	
		<line fill="none" stroke="#231F20" stroke-linecap="round" stroke-miterlimit="10" x1="56.958" y1="51.907" x2="50.462" y2="54.989"/>
</g>
<g>
	<path fill="#FFFFFF" stroke="#231F20" stroke-miterlimit="10" d="M40.567,48.015c-3.634,2.693-6.169,5.694-6.841,9.589
		c-0.671,3.894,0.769,8.675,1.936,12.788c1.167,4.114,13.178,11.27,19.496,11.299c6.318,0.03,13.541-3.328,21.146-6.049
		c7.605-2.721,14.433-11.611,17.273-17.528c2.843-5.918,2.67-9.729,1.079-14.21c-1.591-4.48-5.772-10.732-9.851-11.105
		c-4.078-0.373-12.036,1.715-18.227,5.324c-6.188,3.61,0.644,0.69-7.667,2.97C50.604,43.374,44.201,45.321,40.567,48.015z"/>
	
		<line fill="none" stroke="#231F20" stroke-linecap="round" stroke-miterlimit="10" x1="41.858" y1="65.222" x2="52.129" y2="72.113"/>
	
		<line fill="none" stroke="#231F20" stroke-linecap="round" stroke-miterlimit="10" x1="51.424" y1="54.555" x2="59.752" y2="58.601"/>
	
		<line fill="none" stroke="#231F20" stroke-linecap="round" stroke-miterlimit="10" x1="76.633" y1="45.228" x2="75.47" y2="50.112"/>
	
		<line fill="none" stroke="#231F20" stroke-linecap="round" stroke-miterlimit="10" x1="68.238" y1="63.479" x2="73.942" y2="64.042"/>
	
		<line fill="none" stroke="#231F20" stroke-linecap="round" stroke-miterlimit="10" x1="87.862" y1="49.091" x2="84.949" y2="55.663"/>
</g>
<g>
	<path fill="#FFFFFF" stroke="#231F20" stroke-miterlimit="10" d="M19.801,47.804c-4.343,1.265-7.762,3.2-9.743,6.62
		s-2.29,8.403-2.623,12.666s8.449,15.142,14.364,17.362s13.855,1.576,21.931,1.663c8.075,0.087,17.565-5.882,22.283-10.445
		c4.72-4.563,5.88-8.197,5.943-12.952c0.063-4.755-1.691-12.068-5.387-13.833c-3.694-1.765-11.883-2.567-18.94-1.331
		c-7.056,1.237,0.363,0.87-8.221,0.125C30.825,46.935,24.144,46.539,19.801,47.804z"/>
	
		<line fill="none" stroke="#231F20" stroke-linecap="round" stroke-miterlimit="10" x1="15.041" y1="64.39" x2="22.283" y2="74.417"/>
	
		<line fill="none" stroke="#231F20" stroke-linecap="round" stroke-miterlimit="10" x1="27.714" y1="57.704" x2="34.122" y2="64.39"/>
	
		<line fill="none" stroke="#231F20" stroke-linecap="round" stroke-miterlimit="10" x1="54.594" y1="57.704" x2="51.809" y2="61.883"/>
	
		<line fill="none" stroke="#231F20" stroke-linecap="round" stroke-miterlimit="10" x1="40.389" y1="71.91" x2="45.541" y2="74.417"/>
	
		<line fill="none" stroke="#231F20" stroke-linecap="round" stroke-miterlimit="10" x1="63.785" y1="65.225" x2="58.771" y2="70.378"/>
</g>
</svg>
