<?xml version="1.0" encoding="utf-8"?>
<!-- Generator: Adobe Illustrator 16.2.0, SVG Export Plug-In . SVG Version: 6.00 Build 0)  -->
<!DOCTYPE svg PUBLIC "-//W3C//DTD SVG 1.1//EN" "http://www.w3.org/Graphics/SVG/1.1/DTD/svg11.dtd">
<svg version="1.1" id="Layer_1" xmlns="http://www.w3.org/2000/svg" xmlns:xlink="http://www.w3.org/1999/xlink" x="0px" y="0px"
	 width="100px" height="100px" viewBox="0 0 100 100" enable-background="new 0 0 100 100" xml:space="preserve">
<g>
	<path fill="none" stroke="#231F20" stroke-miterlimit="10" d="M15.409,16.077c11.792,29.032,27.945,53.975,47.173,73"/>
	<path fill="#FFFFFF" stroke="#231F20" stroke-miterlimit="10" d="M30.245,21.213c0.681,2.04,1.042,4.677-0.178,6.721
		c-1.338,2.243-3.594,3.583-5.94,3.79c-1.057-2.145-1.04-4.762,0.274-6.966C25.687,22.601,27.912,21.35,30.245,21.213z"/>
	<path fill="#FFFFFF" stroke="#231F20" stroke-miterlimit="10" d="M26.748,11.08c0.519,2.088,0.669,4.744-0.706,6.688
		c-1.511,2.129-3.867,3.287-6.223,3.308c-0.884-2.222-0.66-4.829,0.824-6.923C22.096,12.104,24.412,11.033,26.748,11.08z"/>
	<path fill="#FFFFFF" stroke="#231F20" stroke-miterlimit="10" d="M34.985,31.724c0.957,1.925,1.681,4.486,0.757,6.681
		c-1.014,2.407-3.062,4.047-5.358,4.576c-1.344-1.978-1.689-4.571-0.693-6.936C30.665,33.73,32.694,32.184,34.985,31.724z"/>
	<path fill="#FFFFFF" stroke="#231F20" stroke-miterlimit="10" d="M39.763,41.888c1.26,1.741,2.394,4.149,1.842,6.465
		c-0.604,2.541-2.357,4.494-4.535,5.393c-1.648-1.73-2.416-4.233-1.822-6.729C35.831,44.575,37.579,42.715,39.763,41.888z"/>
	<path fill="#FFFFFF" stroke="#231F20" stroke-miterlimit="10" d="M20.578,33.339c-1.793,1.187-4.247,2.219-6.537,1.571
		c-2.514-0.711-4.393-2.543-5.2-4.756c1.797-1.577,4.33-2.239,6.798-1.541C18.056,29.297,19.841,31.122,20.578,33.339z"/>
	<path fill="#FFFFFF" stroke="#231F20" stroke-miterlimit="10" d="M15.409,22.635c-1.806,1.168-4.271,2.174-6.554,1.502
		c-2.505-0.738-4.365-2.59-5.149-4.813c1.815-1.556,4.354-2.191,6.816-1.466C12.931,18.567,14.696,20.411,15.409,22.635z"/>
	<path fill="#FFFFFF" stroke="#231F20" stroke-miterlimit="10" d="M26.334,44.352c-1.791,1.189-4.243,2.226-6.535,1.583
		c-2.514-0.707-4.397-2.534-5.208-4.747c1.794-1.579,4.324-2.245,6.795-1.552C23.805,40.314,25.593,42.135,26.334,44.352z"/>
	<path fill="#FFFFFF" stroke="#231F20" stroke-miterlimit="10" d="M32.176,55.603c-1.838,1.112-4.333,2.046-6.595,1.305
		c-2.483-0.812-4.285-2.719-5.003-4.962c1.86-1.501,4.417-2.062,6.856-1.264C29.821,51.463,31.531,53.357,32.176,55.603z"/>
</g>
<g>
	<path fill="none" stroke="#231F20" stroke-miterlimit="10" d="M34.086,7.992c7.055,30.531,19.063,57.713,35.042,79.538"/>
	<path fill="#FFFFFF" stroke="#231F20" stroke-miterlimit="10" d="M47.924,15.408c0.35,2.121,0.289,4.782-1.238,6.608
		c-1.675,2.003-4.115,2.97-6.465,2.803c-0.704-2.286-0.274-4.868,1.371-6.834C43.203,16.059,45.598,15.174,47.924,15.408z"/>
	<path fill="#FFFFFF" stroke="#231F20" stroke-miterlimit="10" d="M46.072,4.85c0.182,2.143-0.09,4.791-1.754,6.492
		c-1.828,1.864-4.338,2.635-6.668,2.282c-0.521-2.333,0.111-4.873,1.907-6.706C41.316,5.125,43.773,4.434,46.072,4.85z"/>
	<path fill="#FFFFFF" stroke="#231F20" stroke-miterlimit="10" d="M50.942,26.536c0.642,2.052,0.951,4.695-0.309,6.716
		c-1.381,2.216-3.661,3.511-6.014,3.671c-1.015-2.165-0.945-4.781,0.411-6.958C46.36,27.834,48.607,26.627,50.942,26.536z"/>
	<path fill="#FFFFFF" stroke="#231F20" stroke-miterlimit="10" d="M54.055,37.327c0.969,1.919,1.707,4.476,0.797,6.676
		c-1,2.413-3.038,4.064-5.33,4.608c-1.355-1.969-1.718-4.563-0.736-6.932C49.746,39.359,51.766,37.799,54.055,37.327z"/>
	<path fill="#FFFFFF" stroke="#231F20" stroke-miterlimit="10" d="M36.461,25.854c-1.957,0.888-4.544,1.52-6.703,0.518
		c-2.369-1.099-3.936-3.205-4.383-5.518c2.024-1.273,4.63-1.527,6.957-0.447C34.61,21.464,36.084,23.547,36.461,25.854z"/>
	<path fill="#FFFFFF" stroke="#231F20" stroke-miterlimit="10" d="M33.049,14.467c-1.967,0.868-4.56,1.471-6.708,0.448
		c-2.357-1.125-3.901-3.247-4.323-5.565c2.037-1.249,4.645-1.477,6.962-0.371C31.245,10.059,32.696,12.158,33.049,14.467z"/>
	<path fill="#FFFFFF" stroke="#231F20" stroke-miterlimit="10" d="M40.404,37.637c-1.956,0.892-4.541,1.528-6.703,0.531
		c-2.37-1.096-3.94-3.198-4.392-5.51c2.021-1.276,4.625-1.534,6.955-0.459C38.545,33.251,40.023,35.332,40.404,37.637z"/>
	<path fill="#FFFFFF" stroke="#231F20" stroke-miterlimit="10" d="M44.395,49.67c-1.99,0.808-4.602,1.335-6.718,0.246
		c-2.323-1.193-3.801-3.361-4.156-5.689c2.074-1.189,4.688-1.338,6.971-0.164C42.724,45.21,44.112,47.353,44.395,49.67z"/>
</g>
<g>
	<path fill="none" stroke="#231F20" stroke-miterlimit="10" d="M72.082,10.26c-8.83,30.066-11.702,59.642-8.486,86.5"/>
	<path fill="#FFFFFF" stroke="#231F20" stroke-miterlimit="10" d="M80.501,23.51c-0.735,2.021-2.093,4.31-4.32,5.151
		c-2.442,0.924-5.042,0.569-7.009-0.729c0.508-2.336,2.148-4.375,4.549-5.281C76.07,21.762,78.59,22.167,80.501,23.51z"/>
	<path fill="#FFFFFF" stroke="#231F20" stroke-miterlimit="10" d="M84.068,13.402c-0.894,1.957-2.428,4.131-4.714,4.797
		c-2.507,0.727-5.073,0.167-6.929-1.282c0.69-2.289,2.487-4.191,4.951-4.907C79.789,11.309,82.269,11.913,84.068,13.402z"/>
	<path fill="#FFFFFF" stroke="#231F20" stroke-miterlimit="10" d="M77.674,34.688c-0.448,2.104-1.477,4.559-3.564,5.702
		c-2.291,1.254-4.915,1.264-7.041,0.248c0.177-2.384,1.52-4.63,3.771-5.861C73.043,33.573,75.594,33.624,77.674,34.688z"/>
	<path fill="#FFFFFF" stroke="#231F20" stroke-miterlimit="10" d="M75.091,45.619c-0.098,2.147-0.708,4.738-2.581,6.208
		c-2.054,1.613-4.642,2.051-6.906,1.4c-0.213-2.379,0.743-4.817,2.76-6.402C70.34,45.277,72.866,44.908,75.091,45.619z"/>
	<path fill="#FFFFFF" stroke="#231F20" stroke-miterlimit="10" d="M65.389,26.991c-2.142-0.187-4.705-0.906-6.095-2.837
		c-1.526-2.121-1.856-4.725-1.112-6.958c2.389-0.117,4.782,0.94,6.281,3.022C65.93,22.256,66.191,24.795,65.389,26.991z"/>
	<path fill="#FFFFFF" stroke="#231F20" stroke-miterlimit="10" d="M68.002,15.394c-2.141-0.21-4.696-0.955-6.065-2.901
		c-1.502-2.137-1.806-4.743-1.037-6.972c2.39-0.089,4.772,0.993,6.249,3.094C68.592,10.667,68.827,13.208,68.002,15.394z"/>
	<path fill="#FFFFFF" stroke="#231F20" stroke-miterlimit="10" d="M63.044,39.192c-2.143-0.182-4.706-0.896-6.101-2.826
		c-1.528-2.117-1.866-4.719-1.124-6.956c2.388-0.12,4.782,0.933,6.285,3.013C63.575,34.458,63.843,36.996,63.044,39.192z"/>
	<path fill="#FFFFFF" stroke="#231F20" stroke-miterlimit="10" d="M60.618,51.635c-2.131-0.271-4.665-1.093-5.976-3.081
		c-1.438-2.18-1.662-4.794-0.83-6.997c2.391-0.019,4.741,1.133,6.154,3.276C61.35,46.929,61.51,49.476,60.618,51.635z"/>
</g>
</svg>
