<?xml version="1.0" encoding="utf-8"?>
<!-- Generator: Adobe Illustrator 16.2.0, SVG Export Plug-In . SVG Version: 6.00 Build 0)  -->
<!DOCTYPE svg PUBLIC "-//W3C//DTD SVG 1.1//EN" "http://www.w3.org/Graphics/SVG/1.1/DTD/svg11.dtd">
<svg version="1.1" id="Layer_1" xmlns="http://www.w3.org/2000/svg" xmlns:xlink="http://www.w3.org/1999/xlink" x="0px" y="0px"
	 width="100px" height="100px" viewBox="0 0 100 100" enable-background="new 0 0 100 100" xml:space="preserve">
<g>
	<path fill="#FFFFFF" stroke="#231F20" stroke-miterlimit="10" d="M54.044,32.615c-5.703-2.648-10.926-3.119-15.192-1.105
		s-7.218,6.346-8.799,12.432C42.06,69.375,66.306,99.266,70.014,97.514C73.724,95.764,66.051,58.049,54.044,32.615z"/>
	<line fill="none" stroke="#231F20" stroke-miterlimit="10" x1="32.486" y1="49.096" x2="48.648" y2="54.893"/>
	<line fill="none" stroke="#231F20" stroke-miterlimit="10" x1="48.547" y1="74.846" x2="60.009" y2="78.957"/>
	<line fill="none" stroke="#231F20" stroke-miterlimit="10" x1="39.836" y1="62.031" x2="54.502" y2="67.291"/>
</g>
<g>
	<path fill="#FFFFFF" stroke="#231F20" stroke-miterlimit="10" d="M23.546,13.434c2.877-1.359,9.524,6.587,15.306,18.076
		c-0.465-1.038-0.946-2.086-1.446-3.145C29.923,12.514,21.582,0.738,18.775,2.063c-2.255,1.064-0.244,10.272,4.515,22.072
		C21.822,18.382,21.791,14.263,23.546,13.434z"/>
	<path fill="none" stroke="#231F20" stroke-miterlimit="10" d="M50.154,26.174C44.956,15.63,38.521,8.362,35.506,9.786
		c-3.013,1.422-1.492,11.009,3.346,21.724"/>
</g>
</svg>
