<?xml version="1.0" encoding="utf-8"?>
<!-- Generator: Adobe Illustrator 16.2.0, SVG Export Plug-In . SVG Version: 6.00 Build 0)  -->
<!DOCTYPE svg PUBLIC "-//W3C//DTD SVG 1.1//EN" "http://www.w3.org/Graphics/SVG/1.1/DTD/svg11.dtd">
<svg version="1.1" xmlns="http://www.w3.org/2000/svg" xmlns:xlink="http://www.w3.org/1999/xlink" x="0px" y="0px" width="100px"
	 height="100px" viewBox="0 0 100 100" enable-background="new 0 0 100 100" xml:space="preserve">
<g id="Layer_1">
</g>
<g id="Layer_2">
	<g>
		<g>
			<path fill="#231F20" d="M-1-28.375V-25C-1-11.767-11.767-1-25-1h-50c-13.233,0-24-10.767-24-24v-3.375H-1 M0-29.375h-100V-25
				c0,13.807,11.193,25,25,25h50C-11.192,0,0-11.193,0-25V-29.375L0-29.375z"/>
		</g>
	</g>
</g>
<g id="Layer_3">
	<g>
		<g>
			<path fill="#231F20" d="M75-99c13.233,0,24,10.766,24,24v50C99-11.767,88.233-1,75-1H64.667v-64.125v-1h-1h-6.834H29.5h-5h-6.333
				H1V-75c0-13.234,10.767-24,24-24H75 M75-100H25C11.193-100,0-88.807,0-75v9.875h18.167H24.5h5h27.333h6.834V0H75
				c13.807,0,25-11.193,25-25v-50C100-88.807,88.807-100,75-100L75-100z"/>
		</g>
		<g>
			<path fill="#231F20" d="M28.5-28.375V-1H25C11.767-1,1-11.767,1-25v-3.375H28.5 M29.5-29.375H0V-25C0-11.193,11.193,0,25,0h4.5
				V-29.375L29.5-29.375z"/>
		</g>
	</g>
</g>
<g id="Layer_4">
	<g>
		<g>
			<path fill="#FFFFFF" d="M25,99.5C11.49,99.5,0.5,88.51,0.5,75v-9.375h63.667V0.5H75c13.51,0,24.5,10.99,24.5,24.5v50
				c0,13.51-10.99,24.5-24.5,24.5H25z"/>
			<path fill="#231F20" d="M75,1c13.233,0,24,10.767,24,24v50c0,13.233-10.767,24-24,24H25C11.767,99,1,88.233,1,75v-8.875h17.167
				H24.5h5h27.333h6.834h1v-1V1H75 M75,0H63.667v65.125h-6.834H29.5h-5h-6.333H0V75c0,13.807,11.193,25,25,25h50
				c13.807,0,25-11.193,25-25V25C100,11.193,88.807,0,75,0L75,0z"/>
		</g>
		<g>
			<path fill="#FFFFFF" d="M0.5,28.875V25C0.5,11.49,11.49,0.5,25,0.5h4v28.375H0.5z"/>
			<path fill="#231F20" d="M28.5,1v27.375H1V25C1,11.767,11.767,1,25,1H28.5 M29.5,0H25C11.193,0,0,11.193,0,25v4.375h29.5V0L29.5,0
				z"/>
		</g>
	</g>
</g>
<g id="Layer_5">
	<g>
		<path fill="#231F20" d="M-25,1C-11.767,1-1,11.767-1,25v3.375h-69.25h-1v1v35.75v1h1H-1V75c0,13.233-10.767,24-24,24h-50
			c-13.233,0-24-10.767-24-24V25c0-13.233,10.767-24,24-24H-25 M-25,0h-50c-13.807,0-25,11.193-25,25v50c0,13.807,11.193,25,25,25
			h50c13.807,0,25-11.193,25-25v-9.875h-70.25v-35.75H0V25C0,11.193-11.193,0-25,0L-25,0z"/>
	</g>
	<circle fill="#FFFFFF" stroke="#231F20" stroke-miterlimit="10" cx="38.515" cy="64.273" r="25.834"/>
	<polygon fill="#FFFFFF" stroke="#231F20" stroke-miterlimit="10" points="75.482,18.691 66.328,34.445 51.997,26.118 
		23.387,75.355 55.965,94.286 56.74,92.95 84.575,45.049 93.73,29.295 	"/>
</g>
<g id="Layer_6">
</g>
</svg>
