<?xml version="1.0" encoding="utf-8"?>
<!-- Generator: Adobe Illustrator 16.2.0, SVG Export Plug-In . SVG Version: 6.00 Build 0)  -->
<!DOCTYPE svg PUBLIC "-//W3C//DTD SVG 1.1//EN" "http://www.w3.org/Graphics/SVG/1.1/DTD/svg11.dtd">
<svg version="1.1" xmlns="http://www.w3.org/2000/svg" xmlns:xlink="http://www.w3.org/1999/xlink" x="0px" y="0px" width="100px"
	 height="100px" viewBox="0 0 100 100" enable-background="new 0 0 100 100" xml:space="preserve">
<g id="Layer_1">
	<g>
		<path fill="#231F20" d="M-25-99c13.233,0,24,10.766,24,24v8.875h-23.5h-1v1v35.75v1h1H-1V-25C-1-11.767-11.767-1-25-1h-50
			c-13.234,0-24-10.767-24-24v-50c0-13.234,10.766-24,24-24H-25 M-25-100h-50c-13.807,0-25,11.193-25,25v50
			c0,13.807,11.193,25,25,25h50C-11.193,0,0-11.193,0-25v-4.375h-24.5v-35.75H0V-75C0-88.807-11.193-100-25-100L-25-100z"/>
	</g>
</g>
<g id="Layer_2">
	<g>
		<g>
			<path fill="#231F20" d="M99-28.375V-25C99-11.767,88.233-1,75-1H25C11.767-1,1-11.767,1-25v-3.375H99 M100-29.375H0V-25
				C0-11.193,11.193,0,25,0h50c13.808,0,25-11.193,25-25V-29.375L100-29.375z"/>
		</g>
	</g>
</g>
<g id="Layer_3">
	<g>
		<g>
			<path fill="#231F20" d="M175-99c13.233,0,24,10.766,24,24v50c0,13.233-10.767,24-24,24h-10.333v-64.125v-1h-1h-6.834H129.5h-5
				h-6.333H101V-75c0-13.234,10.767-24,24-24H175 M175-100h-50c-13.807,0-25,11.193-25,25v9.875h18.167h6.333h5h27.333h6.834V0H175
				c13.807,0,25-11.193,25-25v-50C200-88.807,188.807-100,175-100L175-100z"/>
		</g>
		<g>
			<path fill="#231F20" d="M128.5-28.375V-1H125c-13.233,0-24-10.767-24-24v-3.375H128.5 M129.5-29.375H100V-25
				c0,13.807,11.193,25,25,25h4.5V-29.375L129.5-29.375z"/>
		</g>
	</g>
</g>
<g id="Layer_4">
	<g>
		<g>
			<path fill="#231F20" d="M175,1c13.233,0,24,10.767,24,24v50c0,13.233-10.767,24-24,24h-50c-13.233,0-24-10.767-24-24v-8.875
				h17.167h6.333h5h27.333h6.834h1v-1V1H175 M175,0h-11.333v65.125h-6.834H129.5h-5h-6.333H100V75c0,13.807,11.193,25,25,25h50
				c13.807,0,25-11.193,25-25V25C200,11.193,188.807,0,175,0L175,0z"/>
		</g>
		<g>
			<path fill="#231F20" d="M128.5,1v27.375H101V25c0-13.233,10.767-24,24-24H128.5 M129.5,0H125c-13.807,0-25,11.193-25,25v4.375
				h29.5V0L129.5,0z"/>
		</g>
	</g>
</g>
<g id="Layer_5">
	<g>
		<path fill="#FFFFFF" d="M25,99.5C11.491,99.5,0.5,88.51,0.5,75V25C0.5,11.49,11.491,0.5,25,0.5h50c13.51,0,24.5,10.99,24.5,24.5
			v3.875H29.25v36.75H99.5V75c0,13.51-10.99,24.5-24.5,24.5H25z"/>
		<path fill="#231F20" d="M75,1c13.233,0,24,10.767,24,24v3.375H29.75h-1v1v35.75v1h1H99V75c0,13.233-10.767,24-24,24H25
			C11.767,99,1,88.233,1,75V25C1,11.767,11.767,1,25,1H75 M75,0H25C11.193,0,0,11.193,0,25v50c0,13.807,11.193,25,25,25h50
			c13.807,0,25-11.193,25-25v-9.875H29.75v-35.75H100V25C100,11.193,88.807,0,75,0L75,0z"/>
	</g>
	<g>
		<path fill="#FFFFFF" stroke="#231F20" stroke-miterlimit="10" d="M6.855,87.667V67.539h20.604v3.427H11.54v4.494h9.283v3.428
			H11.54v4.999h16.11v3.78H6.855z"/>
		<path fill="#FFFFFF" stroke="#231F20" stroke-miterlimit="10" d="M36.229,87.667V67.539h3.199l14.148,11.863
			c0.578,0.438,1.01,0.8,1.295,1.085c0.261,0.268,0.598,0.632,1.01,1.096c-0.038-0.578-0.066-1.033-0.086-1.366
			c-0.02-0.334-0.041-0.672-0.066-1.015c-0.025-0.311-0.038-0.676-0.038-1.095V67.539h4.208v20.128h-3.199L41.922,75.223
			c-0.425-0.368-0.74-0.654-0.942-0.857c-0.337-0.336-0.581-0.597-0.733-0.78c0.013,0.229,0.038,0.533,0.076,0.914
			s0.063,0.663,0.076,0.848c0.025,0.387,0.038,0.866,0.038,1.438v10.883H36.229z"/>
		<path fill="#FFFFFF" stroke="#231F20" stroke-miterlimit="10" d="M70.182,87.667V67.539h12.955c3.695,0,6.543,0.859,8.543,2.58
			c1.975,1.739,2.963,4.195,2.963,7.369c0,1.86-0.391,3.549-1.172,5.065c-0.773,1.511-1.865,2.695-3.275,3.552
			c-0.882,0.546-1.961,0.937-3.236,1.171c-1.252,0.261-2.928,0.391-5.03,0.391H70.182z M74.867,83.887h6.045
			c3.206,0,5.494-0.508,6.865-1.523c1.352-0.958,2.028-2.608,2.028-4.951c0-2.082-0.559-3.644-1.676-4.685
			c-1.155-1.066-2.806-1.6-4.951-1.6h-8.312V83.887z"/>
	</g>
	<circle fill="#FFFFFF" stroke="#231F20" stroke-miterlimit="10" cx="24.625" cy="33.054" r="23.5"/>
</g>
<g id="Layer_6">
</g>
</svg>
