<?xml version="1.0" encoding="utf-8"?>
<!-- Generator: Adobe Illustrator 16.2.0, SVG Export Plug-In . SVG Version: 6.00 Build 0)  -->
<!DOCTYPE svg PUBLIC "-//W3C//DTD SVG 1.1//EN" "http://www.w3.org/Graphics/SVG/1.1/DTD/svg11.dtd">
<svg version="1.1" xmlns="http://www.w3.org/2000/svg" xmlns:xlink="http://www.w3.org/1999/xlink" x="0px" y="0px" width="100px"
	 height="100px" viewBox="0 0 100 100" enable-background="new 0 0 100 100" xml:space="preserve">
<g id="Layer_1">
</g>
<g id="Layer_2">
	<g>
		<g>
			<path fill="#231F20" d="M-25,1C-11.767,1-1,11.766-1,25v8.875h-98V25c0-13.234,10.767-24,24-24H-25 M-25,0h-50
				c-13.807,0-25,11.193-25,25v9.875H0V25C0,11.193-11.192,0-25,0L-25,0z"/>
		</g>
		<g>
			<path fill="#231F20" d="M-1,71.625V75c0,13.233-10.767,24-24,24h-50c-13.233,0-24-10.767-24-24v-3.375H-1 M0,70.625h-100V75
				c0,13.807,11.193,25,25,25h50c13.808,0,25-11.193,25-25V70.625L0,70.625z"/>
		</g>
	</g>
</g>
<g id="Layer_3">
	<g>
		<g>
			<path fill="#FFFFFF" d="M64.167,99.5V34.375H0.5V25C0.5,11.491,11.49,0.5,25,0.5h50c13.51,0,24.5,10.991,24.5,24.5v50
				c0,13.509-10.99,24.5-24.5,24.5H64.167z"/>
			<path fill="#231F20" d="M75,1c13.233,0,24,10.766,24,24v50c0,13.233-10.767,24-24,24H64.667V34.875v-1h-1h-6.834H29.5h-5h-6.333
				H1V25C1,11.766,11.767,1,25,1H75 M75,0H25C11.193,0,0,11.193,0,25v9.875h18.167H24.5h5h27.333h6.834V100H75
				c13.807,0,25-11.193,25-25V25C100,11.193,88.807,0,75,0L75,0z"/>
		</g>
		<g>
			<path fill="#FFFFFF" d="M25,99.5C11.49,99.5,0.5,88.509,0.5,75v-3.875H29V99.5H25z"/>
			<path fill="#231F20" d="M28.5,71.625V99H25C11.767,99,1,88.233,1,75v-3.375H28.5 M29.5,70.625H0V75c0,13.807,11.193,25,25,25h4.5
				V70.625L29.5,70.625z"/>
		</g>
	</g>
	
		<rect x="40.855" y="14.943" transform="matrix(0.6969 -0.7171 0.7171 0.6969 -24.4372 47.3928)" fill="#FFFFFF" stroke="#231F20" stroke-miterlimit="10" width="6" height="75.333"/>
	
		<rect x="42.788" y="5.321" transform="matrix(0.6969 -0.7172 0.7172 0.6969 -14.7025 51.1894)" fill="#FFFFFF" stroke="#231F20" stroke-miterlimit="10" width="20.833" height="75.333"/>
	
		<rect x="59.049" y="-5.497" transform="matrix(0.6969 -0.7171 0.7171 0.6969 -3.7604 55.4417)" fill="#FFFFFF" stroke="#231F20" stroke-miterlimit="10" width="9.334" height="75.333"/>
	<circle fill="#FFFFFF" stroke="#231F20" stroke-miterlimit="10" cx="33.516" cy="34.43" r="7.584"/>
	<circle fill="#FFFFFF" stroke="#231F20" stroke-miterlimit="10" cx="59.819" cy="48.138" r="14.167"/>
</g>
<g id="Layer_4">
	<g>
		<g>
			<path fill="#231F20" d="M75,101c13.233,0,24,10.767,24,24v50c0,13.233-10.767,24-24,24H25c-13.233,0-24-10.767-24-24v-8.875
				h17.167H24.5h5h27.333h6.834h1v-1V101H75 M75,100H63.667v65.125h-6.834H29.5h-5h-6.333H0V175c0,13.807,11.193,25,25,25h50
				c13.807,0,25-11.193,25-25v-50C100,111.193,88.807,100,75,100L75,100z"/>
		</g>
		<g>
			<path fill="#231F20" d="M28.5,101v27.375H1V125c0-13.233,10.767-24,24-24H28.5 M29.5,100H25c-13.807,0-25,11.193-25,25v4.375
				h29.5V100L29.5,100z"/>
		</g>
	</g>
</g>
<g id="Layer_5">
	<g>
		<path fill="#231F20" d="M-25,101c13.233,0,24,10.767,24,24v3.375h-69.25h-1v1v35.75v1h1H-1V175c0,13.233-10.767,24-24,24h-50
			c-13.233,0-24-10.767-24-24v-50c0-13.233,10.767-24,24-24H-25 M-25,100h-50c-13.807,0-25,11.193-25,25v50
			c0,13.807,11.193,25,25,25h50c13.807,0,25-11.193,25-25v-9.875h-70.25v-35.75H0V125C0,111.193-11.193,100-25,100L-25,100z"/>
	</g>
</g>
<g id="Layer_6">
</g>
</svg>
