<?xml version="1.0" encoding="utf-8"?>
<!-- Generator: Adobe Illustrator 16.2.0, SVG Export Plug-In . SVG Version: 6.00 Build 0)  -->
<!DOCTYPE svg PUBLIC "-//W3C//DTD SVG 1.1//EN" "http://www.w3.org/Graphics/SVG/1.1/DTD/svg11.dtd">
<svg version="1.1" xmlns="http://www.w3.org/2000/svg" xmlns:xlink="http://www.w3.org/1999/xlink" x="0px" y="0px" width="100px"
	 height="100px" viewBox="0 0 100 100" enable-background="new 0 0 100 100" xml:space="preserve">
<g id="Layer_1">
	<g>
		<path fill="#FFFFFF" d="M25,99.5C11.491,99.5,0.5,88.509,0.5,75V25C0.5,11.491,11.491,0.5,25,0.5h50
			c13.509,0,24.5,10.991,24.5,24.5v9.375H75v36.75h24.5V75c0,13.509-10.991,24.5-24.5,24.5H25z"/>
		<path fill="#231F20" d="M75,1c13.233,0,24,10.766,24,24v8.875H75.5h-1v1v35.75v1h1H99V75c0,13.233-10.767,24-24,24H25
			C11.766,99,1,88.233,1,75V25C1,11.766,11.766,1,25,1H75 M75,0H25C11.193,0,0,11.193,0,25v50c0,13.807,11.193,25,25,25h50
			c13.807,0,25-11.193,25-25v-4.375H75.5v-35.75H100V25C100,11.193,88.807,0,75,0L75,0z"/>
	</g>
	<g>
		<path fill="#FFFFFF" d="M67.759,52.25c-8.03,0-14.563-6.533-14.563-14.563s6.533-14.563,14.563-14.563
			c6.785,0,12.652,4.696,14.174,11.25h-6.987v15.961C72.748,51.589,70.269,52.25,67.759,52.25z"/>
		<path fill="#231F20" d="M67.759,23.625c6.339,0,11.847,4.243,13.53,10.25h-5.843h-1v1v15.167
			c-2.059,1.119-4.359,1.708-6.688,1.708c-7.754,0-14.063-6.309-14.063-14.063S60.005,23.625,67.759,23.625 M67.759,22.625
			c-8.319,0-15.063,6.744-15.063,15.063S59.44,52.75,67.759,52.75c2.813,0,5.435-0.785,7.688-2.126V34.875h7.103
			C81.231,27.902,75.115,22.625,67.759,22.625L67.759,22.625z"/>
	</g>
	<rect x="22.333" y="1.167" fill="#FFFFFF" stroke="#231F20" stroke-miterlimit="10" width="27.667" height="57.5"/>
	<g>
		<rect x="11.333" y="54.667" fill="#FFFFFF" width="63.667" height="6.25"/>
		<path fill="#231F20" d="M74.5,55.167v5.25H11.833v-5.25H74.5 M75.5,54.167H10.833v7.25H75.5V54.167L75.5,54.167z"/>
	</g>
	<circle fill="#FFFFFF" stroke="#231F20" stroke-miterlimit="10" cx="37.313" cy="72.313" r="19.563"/>
	<ellipse fill="#FFFFFF" stroke="#231F20" stroke-miterlimit="10" cx="27" cy="32.563" rx="13.875" ry="14.688"/>
</g>
<g id="Layer_2">
	<g>
		<g>
			<path fill="#231F20" d="M175,1c13.233,0,24,10.766,24,24v8.875h-98V25c0-13.234,10.767-24,24-24H175 M175,0h-50
				c-13.807,0-25,11.193-25,25v9.875h100V25C200,11.193,188.808,0,175,0L175,0z"/>
		</g>
		<g>
			<path fill="#231F20" d="M199,71.625V75c0,13.233-10.767,24-24,24h-50c-13.233,0-24-10.767-24-24v-3.375H199 M200,70.625H100V75
				c0,13.807,11.193,25,25,25h50c13.808,0,25-11.193,25-25V70.625L200,70.625z"/>
		</g>
	</g>
</g>
<g id="Layer_3">
</g>
<g id="Layer_4">
</g>
<g id="Layer_5">
	<g>
		<path fill="#231F20" d="M175,101c13.233,0,24,10.767,24,24v3.375h-69.25h-1v1v35.75v1h1H199V175c0,13.233-10.767,24-24,24h-50
			c-13.233,0-24-10.767-24-24v-50c0-13.233,10.767-24,24-24H175 M175,100h-50c-13.807,0-25,11.193-25,25v50
			c0,13.807,11.193,25,25,25h50c13.807,0,25-11.193,25-25v-9.875h-70.25v-35.75H200V125C200,111.193,188.807,100,175,100L175,100z"
			/>
	</g>
</g>
<g id="Layer_6">
</g>
</svg>
