<?xml version="1.0" encoding="utf-8"?>
<!-- Generator: Adobe Illustrator 16.2.0, SVG Export Plug-In . SVG Version: 6.00 Build 0)  -->
<!DOCTYPE svg PUBLIC "-//W3C//DTD SVG 1.1//EN" "http://www.w3.org/Graphics/SVG/1.1/DTD/svg11.dtd">
<svg version="1.1" xmlns="http://www.w3.org/2000/svg" xmlns:xlink="http://www.w3.org/1999/xlink" x="0px" y="0px" width="100px"
	 height="100px" viewBox="0 0 100 100" enable-background="new 0 0 100 100" xml:space="preserve">
<g id="Layer_1">
	<g>
		<path fill="#231F20" d="M-25,1C-11.767,1-1,11.766-1,25v8.875h-23.5h-1v1v35.75v1h1H-1V75c0,13.233-10.767,24-24,24h-50
			c-13.234,0-24-10.767-24-24V25c0-13.234,10.766-24,24-24H-25 M-25,0h-50c-13.807,0-25,11.193-25,25v50c0,13.807,11.193,25,25,25
			h50c13.807,0,25-11.193,25-25v-4.375h-24.5v-35.75H0V25C0,11.193-11.193,0-25,0L-25,0z"/>
	</g>
</g>
<g id="Layer_2">
	<g>
		<g>
			<path fill="#FFFFFF" d="M0.5,34.375V25C0.5,11.491,11.491,0.5,25,0.5h50c13.51,0,24.5,10.991,24.5,24.5v9.375H0.5z"/>
			<path fill="#231F20" d="M75,1c13.233,0,24,10.766,24,24v8.875H1V25C1,11.766,11.767,1,25,1H75 M75,0H25C11.193,0,0,11.193,0,25
				v9.875h100V25C100,11.193,88.808,0,75,0L75,0z"/>
		</g>
		<g>
			<path fill="#FFFFFF" d="M25,99.5C11.491,99.5,0.5,88.509,0.5,75v-3.875h99V75c0,13.509-10.99,24.5-24.5,24.5H25z"/>
			<path fill="#231F20" d="M99,71.625V75c0,13.233-10.767,24-24,24H25C11.767,99,1,88.233,1,75v-3.375H99 M100,70.625H0V75
				c0,13.807,11.193,25,25,25h50c13.808,0,25-11.193,25-25V70.625L100,70.625z"/>
		</g>
	</g>
	<rect x="29.75" y="5" fill="#FFFFFF" stroke="#231F20" stroke-miterlimit="10" width="22.25" height="17.625"/>
	<rect x="46.75" y="10.75" fill="#FFFFFF" stroke="#231F20" stroke-miterlimit="10" width="18.25" height="49.25"/>
	<circle fill="#FFFFFF" stroke="#231F20" stroke-miterlimit="10" cx="48.125" cy="69.417" r="27.625"/>
</g>
<g id="Layer_3">
	<g>
		<g>
			<path fill="#231F20" d="M175,1c13.233,0,24,10.766,24,24v50c0,13.233-10.767,24-24,24h-10.333V34.875v-1h-1h-6.834H129.5h-5
				h-6.333H101V25c0-13.234,10.767-24,24-24H175 M175,0h-50c-13.807,0-25,11.193-25,25v9.875h18.167h6.333h5h27.333h6.834V100H175
				c13.807,0,25-11.193,25-25V25C200,11.193,188.807,0,175,0L175,0z"/>
		</g>
		<g>
			<path fill="#231F20" d="M128.5,71.625V99H125c-13.233,0-24-10.767-24-24v-3.375H128.5 M129.5,70.625H100V75
				c0,13.807,11.193,25,25,25h4.5V70.625L129.5,70.625z"/>
		</g>
	</g>
</g>
<g id="Layer_4">
	<g>
		<g>
			<path fill="#231F20" d="M175,101c13.233,0,24,10.767,24,24v50c0,13.233-10.767,24-24,24h-50c-13.233,0-24-10.767-24-24v-8.875
				h17.167h6.333h5h27.333h6.834h1v-1V101H175 M175,100h-11.333v65.125h-6.834H129.5h-5h-6.333H100V175c0,13.807,11.193,25,25,25h50
				c13.807,0,25-11.193,25-25v-50C200,111.193,188.807,100,175,100L175,100z"/>
		</g>
		<g>
			<path fill="#231F20" d="M128.5,101v27.375H101V125c0-13.233,10.767-24,24-24H128.5 M129.5,100H125c-13.807,0-25,11.193-25,25
				v4.375h29.5V100L129.5,100z"/>
		</g>
	</g>
</g>
<g id="Layer_5">
	<g>
		<path fill="#231F20" d="M75,101c13.233,0,24,10.767,24,24v3.375H29.75h-1v1v35.75v1h1H99V175c0,13.233-10.767,24-24,24H25
			c-13.233,0-24-10.767-24-24v-50c0-13.233,10.767-24,24-24H75 M75,100H25c-13.807,0-25,11.193-25,25v50c0,13.807,11.193,25,25,25
			h50c13.807,0,25-11.193,25-25v-9.875H29.75v-35.75H100V125C100,111.193,88.807,100,75,100L75,100z"/>
	</g>
</g>
<g id="Layer_6">
</g>
</svg>
