<?xml version="1.0" encoding="utf-8"?>
<!-- Generator: Adobe Illustrator 16.2.0, SVG Export Plug-In . SVG Version: 6.00 Build 0)  -->
<!DOCTYPE svg PUBLIC "-//W3C//DTD SVG 1.1//EN" "http://www.w3.org/Graphics/SVG/1.1/DTD/svg11.dtd">
<svg version="1.1" xmlns="http://www.w3.org/2000/svg" xmlns:xlink="http://www.w3.org/1999/xlink" x="0px" y="0px" width="607px"
	 height="263px" viewBox="0 0 607 263" enable-background="new 0 0 607 263" xml:space="preserve">
<g id="Layer_4">
	<g id="Layer_3">
		<text transform="matrix(1 0 0 1 219.8379 243)" font-family="'CourierNewPSMT'" font-size="8" letter-spacing="-1">0.1</text>
		<text transform="matrix(1 0 0 1 219.8379 203)" font-family="'CourierNewPSMT'" font-size="8" letter-spacing="-1">0.5</text>
		<text transform="matrix(1 0 0 1 227.1992 153)" font-family="'CourierNewPSMT'" font-size="8" letter-spacing="-1">1</text>
		<text transform="matrix(1 0 0 1 219.8379 10)" font-family="'CourierNewPSMT'" font-size="8" letter-spacing="-1">kmh</text>
		<text transform="matrix(1 0 0 1 219.8379 103)" font-family="'CourierNewPSMT'" font-size="8" letter-spacing="-1">1.5</text>
		<text transform="matrix(1 0 0 1 227.1992 53)" font-family="'CourierNewPSMT'" font-size="8" letter-spacing="-1">2</text>
		<text transform="matrix(1 0 0 1 329.1992 259)" font-family="'CourierNewPSMT'" font-size="8" letter-spacing="-1">5</text>
		<text transform="matrix(1 0 0 1 425.5186 259)" font-family="'CourierNewPSMT'" font-size="8" letter-spacing="-1">10</text>
		<text transform="matrix(1 0 0 1 525.5186 259)" font-family="'CourierNewPSMT'" font-size="8" letter-spacing="-1">15</text>
		<text transform="matrix(1 0 0 1 584.8379 257.667)" font-family="'CourierNewPSMT'" font-size="8" letter-spacing="-1">sec</text>
	</g>
	<g id="Layer_1">
		<line fill="none" stroke="#231F20" stroke-width="0.5" stroke-miterlimit="10" x1="233.917" y1="6" x2="233.917" y2="253"/>
		<line fill="none" stroke="#231F20" stroke-width="0.5" stroke-miterlimit="10" x1="233.917" y1="253" x2="597" y2="253"/>
		<line fill="none" stroke="#A7A9AC" stroke-width="0.5" stroke-miterlimit="10" x1="232" y1="243" x2="586.167" y2="243"/>
		<line fill="none" stroke="#A7A9AC" stroke-width="0.5" stroke-miterlimit="10" x1="232" y1="233" x2="586.167" y2="233"/>
		<line fill="none" stroke="#A7A9AC" stroke-width="0.5" stroke-miterlimit="10" x1="232" y1="223" x2="586.167" y2="223"/>
		<line fill="none" stroke="#A7A9AC" stroke-width="0.5" stroke-miterlimit="10" x1="232" y1="213" x2="586.167" y2="213"/>
		<line fill="none" stroke="#A7A9AC" stroke-width="0.5" stroke-miterlimit="10" x1="232" y1="203" x2="586.167" y2="203"/>
		<line fill="none" stroke="#A7A9AC" stroke-width="0.5" stroke-miterlimit="10" x1="232" y1="193" x2="586.167" y2="193"/>
		<line fill="none" stroke="#A7A9AC" stroke-width="0.5" stroke-miterlimit="10" x1="232" y1="183" x2="586.167" y2="183"/>
		<line fill="none" stroke="#A7A9AC" stroke-width="0.5" stroke-miterlimit="10" x1="232" y1="173" x2="586.167" y2="173"/>
		<line fill="none" stroke="#A7A9AC" stroke-width="0.5" stroke-miterlimit="10" x1="232" y1="163" x2="586.167" y2="163"/>
		<line fill="none" stroke="#A7A9AC" stroke-width="0.5" stroke-miterlimit="10" x1="232" y1="153" x2="586.167" y2="153"/>
		<line fill="none" stroke="#A7A9AC" stroke-width="0.5" stroke-miterlimit="10" x1="232" y1="143" x2="586.167" y2="143"/>
		<line fill="none" stroke="#A7A9AC" stroke-width="0.5" stroke-miterlimit="10" x1="232" y1="133" x2="586.167" y2="133"/>
		<line fill="none" stroke="#A7A9AC" stroke-width="0.5" stroke-miterlimit="10" x1="232" y1="123" x2="586.167" y2="123"/>
		<line fill="none" stroke="#A7A9AC" stroke-width="0.5" stroke-miterlimit="10" x1="232" y1="113" x2="586.167" y2="113"/>
		<line fill="none" stroke="#A7A9AC" stroke-width="0.5" stroke-miterlimit="10" x1="232" y1="103" x2="586.167" y2="103"/>
		<line fill="none" stroke="#A7A9AC" stroke-width="0.5" stroke-miterlimit="10" x1="232" y1="93" x2="586.167" y2="93"/>
		<line fill="none" stroke="#A7A9AC" stroke-width="0.5" stroke-miterlimit="10" x1="232" y1="83" x2="586.167" y2="83"/>
		<line fill="none" stroke="#A7A9AC" stroke-width="0.5" stroke-miterlimit="10" x1="232" y1="73" x2="586.167" y2="73"/>
		<line fill="none" stroke="#A7A9AC" stroke-width="0.5" stroke-miterlimit="10" x1="232" y1="63" x2="586.167" y2="63"/>
		<line fill="none" stroke="#A7A9AC" stroke-width="0.5" stroke-miterlimit="10" x1="232" y1="53" x2="586.167" y2="53"/>
		<line fill="none" stroke="#A7A9AC" stroke-width="0.5" stroke-miterlimit="10" x1="232" y1="43" x2="586.167" y2="43"/>
		<line fill="none" stroke="#A7A9AC" stroke-width="0.5" stroke-miterlimit="10" x1="232" y1="33" x2="586.167" y2="33"/>
		<line fill="none" stroke="#A7A9AC" stroke-width="0.5" stroke-miterlimit="10" x1="232" y1="23" x2="586.167" y2="23"/>
		<line fill="none" stroke="#A7A9AC" stroke-width="0.5" stroke-miterlimit="10" x1="232" y1="13" x2="586.167" y2="13"/>
		<line fill="none" stroke="#A7A9AC" stroke-width="0.5" stroke-miterlimit="10" x1="334" y1="10" x2="334" y2="255.073"/>
		<line fill="none" stroke="#A7A9AC" stroke-width="0.5" stroke-miterlimit="10" x1="434" y1="10" x2="434" y2="255.073"/>
		<line fill="none" stroke="#A7A9AC" stroke-width="0.5" stroke-miterlimit="10" x1="534" y1="10" x2="534" y2="255.073"/>
	</g>
</g>
<g id="tractionMultiplier__x28_-0.1_x29_" display="none">
	<polyline display="inline" fill="none" stroke="#FFFF00" stroke-width="0.5" stroke-miterlimit="10" points="233.917,253 
		235.917,240.42 237.917,216.121 239.917,212.625 241.917,211.336 243.917,210.887 245.917,210.594 247.917,210.75 249.917,211.004 
		251.917,210.945 253.917,210.789 255.917,210.887 257.917,210.984 259.917,211.004 261.917,211.102 263.917,211.121 
		265.917,209.207 267.917,210.027 269.917,212.918 271.917,212.078 273.917,210.164 275.917,210.809 277.917,210.945 
		279.917,211.902 281.917,211.473 283.917,210.75 285.917,211.434 287.917,210.77 289.917,212.449 291.917,209.754 293.917,211.453 
		295.917,211.434 297.917,211.395 299.917,211.238 301.917,211.492 303.917,211.395 305.917,211.492 307.917,211.844 	"/>
	<polyline display="inline" fill="none" stroke="#00FFFF" stroke-width="0.5" stroke-miterlimit="10" points="233.917,252.98 
		235.917,242.197 237.917,221.455 239.917,218.758 241.917,217.508 243.917,217.078 245.917,216.844 247.917,217 249.917,217.234 
		251.917,217.195 253.917,217.039 255.917,217.156 257.917,217.273 259.917,217.273 261.917,216.648 263.917,216.375 
		265.917,219.227 267.917,218.875 269.917,216.648 271.917,215.516 273.917,217.625 275.917,219.539 277.917,218.211 
		279.917,216.766 281.917,216.961 283.917,218.211 285.917,217.156 287.917,217.859 289.917,218.289 291.917,217.352 
		293.917,217.195 295.917,216.844 297.917,219.695 299.917,218.563 301.917,217.273 303.917,217.313 305.917,218.367 
		307.917,218.328 	"/>
	<polyline display="inline" fill="none" stroke="#FF00FF" stroke-width="0.5" stroke-miterlimit="10" points="233.917,253 
		235.917,244.035 237.917,226.826 239.917,225.146 241.917,222.959 243.917,223.037 245.917,222.686 247.917,224.248 
		249.917,223.115 251.917,222.471 253.917,222.744 255.917,223.662 257.917,223.584 259.917,223.389 261.917,223.545 
		263.917,223.662 265.917,223.643 267.917,223.545 269.917,222.725 271.917,224.287 273.917,224.482 275.917,224.053 
		277.917,223.232 279.917,223.896 281.917,223.74 283.917,224.053 285.917,223.779 287.917,223.643 289.917,224.834 
		291.917,224.834 293.917,224.131 295.917,223.525 297.917,224.15 299.917,223.115 301.917,223.467 303.917,224.268 
		305.917,224.639 307.917,224.287 	"/>
	<polyline display="inline" fill="none" stroke="#0000FF" stroke-width="0.5" stroke-miterlimit="10" points="233.917,253 
		235.917,247.082 237.917,233.877 239.917,232.666 241.917,231.416 243.917,230.244 245.917,231.377 247.917,231.221 
		249.917,230.947 251.917,231.064 253.917,230.596 255.917,231.279 257.917,231.729 259.917,231.025 261.917,231.104 
		263.917,231.455 265.917,231.436 267.917,231.221 269.917,231.26 271.917,231.65 273.917,231.455 275.917,231.416 277.917,231.162 
		279.917,231.338 281.917,231.514 283.917,231.533 285.917,230.4 287.917,231.611 289.917,231.846 291.917,231.885 293.917,231.885 
		295.917,231.533 297.917,231.396 299.917,232.158 301.917,232.119 303.917,231.572 305.917,231.885 307.917,232.275 	"/>
	<polyline display="inline" fill="none" stroke="#00FF00" stroke-width="0.5" stroke-miterlimit="10" points="233.917,252.98 
		235.917,247.531 237.917,237.783 239.917,236.67 241.917,235.654 243.917,235.322 245.917,234.58 247.917,236.025 249.917,235.283 
		251.917,234.932 253.917,235.088 255.917,235.654 257.917,235.635 259.917,235.479 261.917,235.596 263.917,233.057 
		265.917,235.283 267.917,232.822 269.917,230.713 271.917,228.838 273.917,226.846 275.917,224.873 277.917,223.252 
		279.917,221.963 281.917,220.164 283.917,219.031 285.917,217.625 287.917,216.297 289.917,214.949 291.917,214.07 
		293.917,212.156 295.917,211.785 297.917,210.516 299.917,209.5 301.917,208.699 303.917,208.016 305.917,206.98 307.917,206.16 	
		"/>
	<text transform="matrix(1 0 0 1 7.667 13)" display="inline"><tspan x="0" y="0" font-family="'MyriadPro-Regular'" font-size="10">HANDLING = {}</tspan><tspan x="0" y="12" font-family="'MyriadPro-Regular'" font-size="10">HANDLING.mass = 1000</tspan><tspan x="0" y="24" font-family="'MyriadPro-Regular'" font-size="10">HANDLING.turnMass = 1000</tspan><tspan x="0" y="36" font-family="'MyriadPro-Regular'" font-size="10">HANDLING.dragCoeff = 1</tspan><tspan x="0" y="48" font-family="'MyriadPro-Regular'" font-size="10">HANDLING.centerOfMass = {0,0,0}</tspan><tspan x="0" y="60" font-family="'MyriadPro-Regular'" font-size="10">HANDLING.percentSubmerged = 10</tspan><tspan x="0" y="72" font-family="'MyriadPro-Regular'" font-size="10">HANDLING.tractionMultiplier = 0.7 - 0.1*(n-1)</tspan><tspan x="0" y="84" font-family="'MyriadPro-Regular'" font-size="10">HANDLING.tractionLoss = 0.8</tspan><tspan x="0" y="96" font-family="'MyriadPro-Regular'" font-size="10">HANDLING.tractionBias = 0.5</tspan><tspan x="0" y="108" font-family="'MyriadPro-Regular'" font-size="10">HANDLING.numberOfGears = 5</tspan><tspan x="0" y="120" font-family="'MyriadPro-Regular'" font-size="10">HANDLING.maxVelocity = 200</tspan><tspan x="0" y="132" font-family="'MyriadPro-Regular'" font-size="10">HANDLING.engineAcceleration = 5</tspan><tspan x="0" y="144" font-family="'MyriadPro-Regular'" font-size="10">HANDLING.engineInertia = 5</tspan><tspan x="0" y="156" font-family="'MyriadPro-Regular'" font-size="10">HANDLING.driveType = &quot;rwd&quot;</tspan><tspan x="0" y="168" font-family="'MyriadPro-Regular'" font-size="10">HANDLING.engineType = &quot;petrol&quot;</tspan><tspan x="0" y="180" font-family="'MyriadPro-Regular'" font-size="10">HANDLING.brakeDeceleration = 15</tspan><tspan x="0" y="192" font-family="'MyriadPro-Regular'" font-size="10">HANDLING.brakeBias = 0.7</tspan><tspan x="0" y="204" font-family="'MyriadPro-Regular'" font-size="10">HANDLING.steeringLock = 30</tspan></text>
</g>
<g id="tractionMultiplier__x28_0.2_x29_" display="none">
	<polyline display="inline" fill="none" stroke="#FFFF00" stroke-width="0.5" stroke-miterlimit="10" points="233.917,253 
		235.917,240.422 237.917,216.34 239.917,213.859 241.917,212.043 243.917,211.555 245.917,210.422 247.917,211.32 249.917,211.633 
		251.917,211.77 253.917,211.73 255.917,211.75 257.917,211.75 259.917,211.633 261.917,211.828 263.917,212.102 265.917,212.551 
		267.917,212.336 269.917,212.023 271.917,211.594 273.917,211.867 275.917,211.984 277.917,211.945 279.917,211.008 
		281.917,211.984 283.917,211.945 285.917,210.813 287.917,212.727 289.917,212.414 291.917,211.535 293.917,212.082 
		295.917,212.336 297.917,209.68 299.917,208.703 301.917,213.117 303.917,215.227 305.917,209.309 307.917,209.25 309.917,215.09 
		311.917,212.297 313.917,210.5 315.917,212.023 317.917,213.039 319.917,211.906 321.917,212.063 323.917,211.301 325.917,208.352 
		327.916,149.074 329.916,73.02 331.916,56.555 333.916,68.078 335.916,78.898 	"/>
	<polyline display="inline" fill="none" stroke="#00FFFF" stroke-width="0.5" stroke-miterlimit="10" points="233.917,253 
		235.917,236.828 237.917,204.523 239.917,200.813 241.917,199.914 243.917,199.328 245.917,197.609 247.917,198.684 
		249.917,199.074 251.917,199.27 253.917,199.133 255.917,199.113 257.917,196.887 259.917,198.156 261.917,202.59 263.917,200.305 
		265.917,197.844 267.917,198.449 269.917,199.719 271.917,199.094 273.917,198.547 275.917,197.766 277.917,198.195 
		279.917,199.055 281.917,199.992 283.917,198 285.917,196.496 287.917,197.453 289.917,198.898 291.917,199.992 293.917,199.445 
		295.917,198.547 297.917,194.699 299.917,201.281 301.917,198.703 303.917,198.664 305.917,199.738 307.917,199.523 
		309.917,199.719 311.917,197.688 313.917,197.844 315.917,198.273 317.917,198.742 319.917,199.523 321.917,199.348 
		323.917,196.359 325.917,196.398 327.916,198.742 329.916,199.016 331.916,196.008 333.916,197.883 335.916,197.941 	"/>
	<polyline display="inline" fill="none" stroke="#FF00FF" stroke-width="0.5" stroke-miterlimit="10" points="233.917,253 
		235.917,233.195 237.917,193.527 239.917,186.32 241.917,186.672 243.917,186.672 245.917,187.375 247.917,186.242 249.917,184.25 
		251.917,186.125 253.917,186.711 255.917,185.637 257.917,185.383 259.917,185.383 261.917,185.5 263.917,185.637 265.917,185.617 
		267.917,185.266 269.917,184.992 271.917,185.148 273.917,182.375 275.917,184.094 277.917,183.664 279.917,181.652 
		281.917,186.711 283.917,178.078 285.917,189.68 287.917,179.23 289.917,179.445 291.917,183.273 293.917,184.68 295.917,186.652 
		297.917,184.953 299.917,183.371 301.917,181.594 303.917,181.516 305.917,189.367 307.917,180.969 309.917,180.656 
		311.917,179.309 313.917,185.344 315.917,182.023 317.917,179.582 319.917,180.188 321.917,179.406 323.917,181.184 
		325.917,180.422 327.916,179.309 329.916,178.859 331.916,176.262 333.916,179.523 335.916,179.758 	"/>
	<polyline display="inline" fill="none" stroke="#0000FF" stroke-width="0.5" stroke-miterlimit="10" points="233.917,253 
		235.917,229.348 237.917,183.938 239.917,173.176 241.917,176.105 243.917,174.66 245.917,169.68 247.917,168.605 249.917,174.465 
		251.917,173.801 253.917,170.344 255.917,171.066 257.917,171.77 259.917,170.422 261.917,170.285 263.917,168.84 265.917,169.543 
		267.917,171.027 269.917,169.758 271.917,168.762 273.917,168.117 275.917,166.887 277.917,168.137 279.917,165.461 
		281.917,166.496 283.917,166.223 285.917,165.461 287.917,165.891 289.917,163.801 291.917,165.676 293.917,166.34 
		295.917,163.879 297.917,160.07 299.917,161.438 301.917,161.477 303.917,161.398 305.917,158.859 307.917,158.918 
		309.917,162.277 311.917,159.816 313.917,159.465 315.917,158.684 317.917,150.305 319.917,161.926 321.917,153.781 
		323.917,153.137 325.917,152.785 327.916,151.77 329.916,150.52 331.916,148.723 333.916,147.668 335.916,145.832 	"/>
	<polyline display="inline" fill="none" stroke="#00FF00" stroke-width="0.5" stroke-miterlimit="10" points="233.917,253 
		235.917,226.164 237.917,171.594 239.917,162.258 241.917,161.203 243.917,159.797 245.917,156.145 247.917,154.328 
		249.917,160.891 251.917,159.367 253.917,155.93 255.917,154.602 257.917,154.445 259.917,154.875 261.917,153.723 
		263.917,149.211 265.917,146.809 267.917,143.664 269.917,142.531 271.917,139.523 273.917,136.281 275.917,133.059 
		277.917,127.336 279.917,123.957 281.917,117.844 283.917,117.453 285.917,104.914 287.917,90.813 289.917,72.414 291.917,50.148 
		293.917,24.681 295.917,5.306 297.917,-14.46 299.917,-8.327 301.917,40.109 303.917,125.461 305.917,189.406 307.917,180.617 
		309.917,171.828 311.917,163.391 313.917,155.539 315.917,148.547 317.917,141.75 319.917,136.164 321.917,130.539 
		323.917,120.031 325.917,123.703 327.916,114.406 329.916,109.406 331.916,104.289 333.916,97.766 335.916,89.172 	"/>
	<text transform="matrix(1 0 0 1 7.667 13)" display="inline"><tspan x="0" y="0" font-family="'MyriadPro-Regular'" font-size="10">HANDLING = {}</tspan><tspan x="0" y="12" font-family="'MyriadPro-Regular'" font-size="10">HANDLING.mass = 1000</tspan><tspan x="0" y="24" font-family="'MyriadPro-Regular'" font-size="10">HANDLING.turnMass = 1000</tspan><tspan x="0" y="36" font-family="'MyriadPro-Regular'" font-size="10">HANDLING.dragCoeff = 1</tspan><tspan x="0" y="48" font-family="'MyriadPro-Regular'" font-size="10">HANDLING.centerOfMass = {0,0,0}</tspan><tspan x="0" y="60" font-family="'MyriadPro-Regular'" font-size="10">HANDLING.percentSubmerged = 10</tspan><tspan x="0" y="72" font-family="'MyriadPro-Regular'" font-size="10">HANDLING.tractionMultiplier = 0.7 + 0.2*(n-1)</tspan><tspan x="0" y="84" font-family="'MyriadPro-Regular'" font-size="10">HANDLING.tractionLoss = 0.8</tspan><tspan x="0" y="96" font-family="'MyriadPro-Regular'" font-size="10">HANDLING.tractionBias = 0.5</tspan><tspan x="0" y="108" font-family="'MyriadPro-Regular'" font-size="10">HANDLING.numberOfGears = 5</tspan><tspan x="0" y="120" font-family="'MyriadPro-Regular'" font-size="10">HANDLING.maxVelocity = 200</tspan><tspan x="0" y="132" font-family="'MyriadPro-Regular'" font-size="10">HANDLING.engineAcceleration = 5</tspan><tspan x="0" y="144" font-family="'MyriadPro-Regular'" font-size="10">HANDLING.engineInertia = 5</tspan><tspan x="0" y="156" font-family="'MyriadPro-Regular'" font-size="10">HANDLING.driveType = &quot;rwd&quot;</tspan><tspan x="0" y="168" font-family="'MyriadPro-Regular'" font-size="10">HANDLING.engineType = &quot;petrol&quot;</tspan><tspan x="0" y="180" font-family="'MyriadPro-Regular'" font-size="10">HANDLING.brakeDeceleration = 15</tspan><tspan x="0" y="192" font-family="'MyriadPro-Regular'" font-size="10">HANDLING.brakeBias = 0.7</tspan><tspan x="0" y="204" font-family="'MyriadPro-Regular'" font-size="10">HANDLING.steeringLock = 30</tspan></text>
</g>
<g id="tractionBias__x28_0.015_x29_" display="none">
	<polyline display="inline" fill="none" stroke="#FFFF00" stroke-width="0.5" stroke-miterlimit="10" points="233.917,253 
		235.917,240.07 237.917,216.32 239.917,213.273 241.917,209.992 243.917,209.563 245.917,209.25 247.917,209.426 249.917,209.855 
		251.917,209.563 253.917,209.641 255.916,209.816 257.916,209.66 259.916,209.563 261.916,209.973 263.916,210.051 
		265.916,209.895 267.917,210.031 269.917,210.188 271.917,209.855 273.917,210.188 275.917,210.656 277.917,210.305 
		279.917,210.031 281.917,210.539 283.917,210.305 285.917,210.109 287.917,210.656 289.917,210.305 291.917,210.5 293.917,210.695 
		295.917,210.578 297.917,209.289 299.917,211.516 301.917,211.555 303.917,210.07 305.917,209.758 307.917,210.5 309.917,210.852 
		311.917,210.422 313.917,210.305 315.917,210.695 317.917,210.617 319.917,210.656 321.917,209.641 	"/>
	<polyline display="inline" fill="none" stroke="#00FFFF" stroke-width="0.5" stroke-miterlimit="10" points="233.917,253 
		235.917,240.07 237.917,213.859 239.917,210.383 241.917,208.801 243.917,208.352 245.917,207.922 247.917,208.059 
		249.917,208.508 251.917,208.195 253.917,208.273 255.916,208.469 257.916,208.313 259.916,206.593 261.916,208.234 263.916,210.5 
		265.916,209.055 267.916,206.671 269.916,207.609 271.916,209.68 273.916,210.051 275.916,209.035 277.916,208.508 
		279.917,208.684 281.917,209.445 283.917,208.918 285.917,208.625 287.917,209.328 289.917,208.938 291.917,208.293 
		293.917,208.605 295.917,208.977 297.917,209.211 299.917,209.289 301.917,209.641 303.917,209.406 305.917,209.211 
		307.917,208.879 309.917,209.113 311.917,209.094 313.917,208.996 315.917,209.211 317.917,209.172 319.917,207.453 
		321.917,208.879 	"/>
	<polyline display="inline" fill="none" stroke="#FF00FF" stroke-width="0.5" stroke-miterlimit="10" points="233.917,253 
		235.917,240.07 237.917,213.117 239.917,209.016 241.917,206.242 243.917,205.734 245.917,202.98 247.917,200.929 249.917,199.21 
		251.917,204.25 253.917,212.375 255.916,209.113 257.916,206.535 259.916,204.445 261.916,202.453 263.916,200.558 
		265.916,198.742 267.917,197.257 269.917,196.085 271.917,194.972 273.917,193.585 275.917,192.042 277.917,190.578 
		279.917,189.367 281.917,188.117 283.917,186.945 285.917,185.851 287.917,179.64 289.917,183.351 291.917,189.25 293.917,181.28 
		295.917,170.909 297.917,168.819 299.917,167.53 301.917,162.511 303.917,157.452 305.917,152.335 307.917,143.351 
		309.917,132.452 311.917,123.506 313.917,113.487 315.917,104.483 317.917,96.006 319.917,89.092 321.917,111.553 	"/>
	<polyline display="inline" fill="none" stroke="#0000FF" stroke-width="0.5" stroke-miterlimit="10" points="233.917,253 
		235.917,240.09 237.917,209.348 239.917,208.273 241.917,201.359 243.917,196.515 245.917,192.882 247.917,189.582 249.917,185.89 
		251.917,182.374 253.917,179.171 255.916,176.593 257.916,173.585 259.916,170.675 261.916,167.96 263.916,165.187 
		265.916,162.413 267.914,159.132 269.914,153.155 271.914,148.507 273.914,141.28 275.914,121.299 277.914,112.745 279.913,98.272 
		281.913,81.006 283.913,74.99 285.913,78.818 287.913,116.241 289.913,157.608 291.913,195.929 293.913,233.098 295.913,246.359 
		297.913,243.234 299.913,234.016 301.913,224.953 303.913,217.336 305.913,207.922 307.913,200.167 309.913,191.085 
		311.913,183.585 313.913,176.808 315.913,170.694 317.913,163.858 319.913,157.491 321.913,152.823 	"/>
	<polyline display="inline" fill="none" stroke="#00FF00" stroke-width="0.5" stroke-miterlimit="10" points="233.917,253 
		235.917,240.129 237.917,209.113 239.917,205.207 241.917,197.98 243.917,190.402 245.917,185.089 247.917,181.573 
		249.917,175.519 251.917,170.089 253.917,165.011 255.916,161.007 257.916,156.3 259.916,151.729 261.916,145.44 263.916,141.026 
		265.916,134.092 267.917,125.674 269.917,111.885 271.917,99.463 273.917,86.143 275.917,73.76 277.917,84.561 279.917,110.401 
		281.917,146.612 283.917,175.421 285.917,201.73 287.917,229.68 289.917,248 291.917,245.91 293.917,237.004 295.917,227.941 
		297.917,218.84 299.917,209.465 301.917,200.128 303.917,192.492 305.917,183.526 307.917,176.3 309.917,171.222 311.917,165.362 
		313.917,158.897 315.917,152.94 317.917,147.979 319.917,143.956 321.917,140.792 	"/>
	<text transform="matrix(1 0 0 1 7.667 13)" display="inline"><tspan x="0" y="0" font-family="'MyriadPro-Regular'" font-size="10">HANDLING = {}</tspan><tspan x="0" y="12" font-family="'MyriadPro-Regular'" font-size="10">HANDLING.mass = 1000</tspan><tspan x="0" y="24" font-family="'MyriadPro-Regular'" font-size="10">HANDLING.turnMass = 1000</tspan><tspan x="0" y="36" font-family="'MyriadPro-Regular'" font-size="10">HANDLING.dragCoeff = 1</tspan><tspan x="0" y="48" font-family="'MyriadPro-Regular'" font-size="10">HANDLING.centerOfMass = {0,0,0}</tspan><tspan x="0" y="60" font-family="'MyriadPro-Regular'" font-size="10">HANDLING.percentSubmerged = 10</tspan><tspan x="0" y="72" font-family="'MyriadPro-Regular'" font-size="10">HANDLING.tractionMultiplier = 0.7</tspan><tspan x="0" y="84" font-family="'MyriadPro-Regular'" font-size="10">HANDLING.tractionLoss = 0.8</tspan><tspan x="0" y="96" font-family="'MyriadPro-Regular'" font-size="10">HANDLING.tractionBias = 0.5 + 0.015*(n-1)</tspan><tspan x="0" y="108" font-family="'MyriadPro-Regular'" font-size="10">HANDLING.numberOfGears = 5</tspan><tspan x="0" y="120" font-family="'MyriadPro-Regular'" font-size="10">HANDLING.maxVelocity = 200</tspan><tspan x="0" y="132" font-family="'MyriadPro-Regular'" font-size="10">HANDLING.engineAcceleration = 5</tspan><tspan x="0" y="144" font-family="'MyriadPro-Regular'" font-size="10">HANDLING.engineInertia = 5</tspan><tspan x="0" y="156" font-family="'MyriadPro-Regular'" font-size="10">HANDLING.driveType = &quot;rwd&quot;</tspan><tspan x="0" y="168" font-family="'MyriadPro-Regular'" font-size="10">HANDLING.engineType = &quot;petrol&quot;</tspan><tspan x="0" y="180" font-family="'MyriadPro-Regular'" font-size="10">HANDLING.brakeDeceleration = 15</tspan><tspan x="0" y="192" font-family="'MyriadPro-Regular'" font-size="10">HANDLING.brakeBias = 0.7</tspan><tspan x="0" y="204" font-family="'MyriadPro-Regular'" font-size="10">HANDLING.steeringLock = 30</tspan></text>
</g>
<g id="tractionBias__x28_-0.015_x29_" display="none">
	<polyline display="inline" fill="none" stroke="#FFFF00" stroke-width="0.5" stroke-miterlimit="10" points="233.917,253 
		235.917,239.486 237.917,214.451 239.917,211.092 241.917,208.807 243.917,208.007 245.917,207.89 247.917,208.514 
		249.917,208.319 251.917,208.553 253.917,208.553 255.917,208.592 257.917,208.943 259.917,208.475 261.917,208.631 
		263.917,208.631 265.917,208.144 267.917,208.709 269.917,209.217 271.917,209.256 273.917,208.689 275.917,208.631 
		277.917,209.061 279.917,208.885 281.917,208.826 283.917,207.772 285.917,209.373 287.917,208.592 289.917,209.529 
		291.917,209.334 293.917,209.393 295.917,207.812 	"/>
	<polyline display="inline" fill="none" stroke="#00FFFF" stroke-width="0.5" stroke-miterlimit="10" points="233.917,253 
		235.917,239.486 237.917,215.389 239.917,213.104 241.917,210.154 243.917,209.256 245.917,209.236 247.917,209.9 249.917,209.725 
		251.917,209.881 253.917,209.881 255.917,209.959 257.917,210.311 259.917,209.881 261.917,210.037 263.917,209.725 
		265.917,210.467 267.917,210.35 269.917,209.881 271.917,210.135 273.917,210.428 275.917,210.232 277.917,210.252 
		279.917,208.826 281.917,210.564 283.917,211.951 285.917,210.662 287.917,209.529 289.917,209.803 291.917,211.541 
		293.917,211.131 295.917,210.135 	"/>
	<polyline display="inline" fill="none" stroke="#FF00FF" stroke-width="0.5" stroke-miterlimit="10" points="233.917,253 
		235.917,239.486 237.917,216.834 239.917,214.412 241.917,211.502 243.917,209.939 245.917,210.623 247.917,212.029 
		249.917,212.498 251.917,210.662 253.917,210.779 255.917,211.287 257.917,212.029 259.917,211.248 261.917,211.502 
		263.917,211.561 265.917,211.795 267.917,211.521 269.917,211.6 271.917,210.271 273.917,204.14 275.917,217.244 277.917,213.045 
		279.917,211.756 281.917,212.029 283.917,211.99 285.917,211.795 287.917,211.951 289.917,212.088 291.917,211.932 
		293.917,212.068 295.917,212.068 	"/>
	<polyline display="inline" fill="none" stroke="#0000FF" stroke-width="0.5" stroke-miterlimit="10" points="233.917,253 
		235.917,240.111 237.917,219.196 239.917,216.17 241.917,212.791 243.917,213.533 245.917,212.869 247.917,213.143 
		249.917,212.752 251.917,211.658 253.917,213.611 255.917,214.314 257.917,213.396 259.917,212.479 261.917,213.494 
		263.917,213.377 265.917,213.475 267.917,212.635 269.917,212.811 271.917,214.627 273.917,214.158 275.917,212.908 
		277.917,213.416 279.917,213.768 281.917,213.65 283.917,213.631 285.917,213.572 287.917,212.889 289.917,213.338 291.917,214.1 
		293.917,214.354 295.917,213.807 	"/>
	<polyline display="inline" fill="none" stroke="#00FF00" stroke-width="0.5" stroke-miterlimit="10" points="233.917,253 
		235.917,240.971 237.917,222.438 239.917,218.493 241.917,216.15 243.917,215.877 245.917,215.506 247.917,216.014 
		249.917,215.564 251.917,215.291 253.917,216.189 255.916,216.756 257.917,216.385 259.917,215.408 261.917,216.189 
		263.917,216.307 265.917,216.658 267.917,216.033 269.917,216.072 271.917,216.541 273.917,216.58 275.917,216.033 
		277.917,216.346 279.917,215.818 281.917,215.877 283.917,217.283 285.917,216.697 287.917,216.189 289.917,216.658 
		291.917,216.893 293.917,215.877 295.917,216.99 	"/>
	<text transform="matrix(1 0 0 1 7.667 13)" display="inline"><tspan x="0" y="0" font-family="'MyriadPro-Regular'" font-size="10">HANDLING = {}</tspan><tspan x="0" y="12" font-family="'MyriadPro-Regular'" font-size="10">HANDLING.mass = 1000</tspan><tspan x="0" y="24" font-family="'MyriadPro-Regular'" font-size="10">HANDLING.turnMass = 1000</tspan><tspan x="0" y="36" font-family="'MyriadPro-Regular'" font-size="10">HANDLING.dragCoeff = 1</tspan><tspan x="0" y="48" font-family="'MyriadPro-Regular'" font-size="10">HANDLING.centerOfMass = {0,0,0}</tspan><tspan x="0" y="60" font-family="'MyriadPro-Regular'" font-size="10">HANDLING.percentSubmerged = 10</tspan><tspan x="0" y="72" font-family="'MyriadPro-Regular'" font-size="10">HANDLING.tractionMultiplier = 0.7</tspan><tspan x="0" y="84" font-family="'MyriadPro-Regular'" font-size="10">HANDLING.tractionLoss = 0.8</tspan><tspan x="0" y="96" font-family="'MyriadPro-Regular'" font-size="10">HANDLING.tractionBias = 0.5 - 0.015*(n-1)</tspan><tspan x="0" y="108" font-family="'MyriadPro-Regular'" font-size="10">HANDLING.numberOfGears = 5</tspan><tspan x="0" y="120" font-family="'MyriadPro-Regular'" font-size="10">HANDLING.maxVelocity = 200</tspan><tspan x="0" y="132" font-family="'MyriadPro-Regular'" font-size="10">HANDLING.engineAcceleration = 5</tspan><tspan x="0" y="144" font-family="'MyriadPro-Regular'" font-size="10">HANDLING.engineInertia = 5</tspan><tspan x="0" y="156" font-family="'MyriadPro-Regular'" font-size="10">HANDLING.driveType = &quot;rwd&quot;</tspan><tspan x="0" y="168" font-family="'MyriadPro-Regular'" font-size="10">HANDLING.engineType = &quot;petrol&quot;</tspan><tspan x="0" y="180" font-family="'MyriadPro-Regular'" font-size="10">HANDLING.brakeDeceleration = 15</tspan><tspan x="0" y="192" font-family="'MyriadPro-Regular'" font-size="10">HANDLING.brakeBias = 0.7</tspan><tspan x="0" y="204" font-family="'MyriadPro-Regular'" font-size="10">HANDLING.steeringLock = 30</tspan></text>
	
		<text transform="matrix(1 0 0 1 269.0332 249.5)" display="inline" font-family="'CourierNewPSMT'" font-size="8" letter-spacing="-1">lowered tractionBias stabilizes turning (with handbrake too)</text>
</g>
<g id="steeringLock__x28_10_x29_" display="none">
	<polyline display="inline" fill="none" stroke="#FFFF00" stroke-width="0.5" stroke-miterlimit="10" points="233.917,253.001 
		235.917,225.62 237.917,213.765 239.917,209.722 241.917,208.647 243.917,207.964 245.917,208.159 247.917,208.628 
		249.917,208.394 251.917,208.296 253.917,208.667 255.917,208.12 257.917,208.628 259.917,208.628 261.917,208.745 
		263.917,208.628 265.917,208.784 267.917,208.159 269.917,209.507 271.917,209.097 273.917,208.472 275.917,208.608 
		277.917,209.019 279.917,209.116 281.917,208.784 283.917,208.921 285.917,209.058 287.917,208.745 289.917,209.233 
		291.917,209.136 293.917,209.565 295.917,208.647 	"/>
	<polyline display="inline" fill="none" stroke="#00FFFF" stroke-width="0.5" stroke-miterlimit="10" points="233.917,253.001 
		235.917,225.62 237.917,213.765 239.917,209.722 241.917,208.628 243.917,207.964 245.917,208.159 247.917,208.628 
		249.917,208.394 251.917,208.296 253.917,208.667 255.917,208.12 257.917,208.628 259.917,208.628 261.917,208.745 
		263.917,208.628 265.917,208.784 267.917,208.823 269.917,209.019 271.917,208.784 273.917,208.569 275.917,208.784 
		277.917,208.94 279.917,209.077 281.917,208.823 283.917,208.315 285.917,209.487 287.917,209.487 289.917,208.081 
		291.917,208.433 293.917,208.862 295.917,210.269 	"/>
	<polyline display="inline" fill="none" stroke="#FF00FF" stroke-width="0.5" stroke-miterlimit="10" points="233.917,253.001 
		235.917,225.62 237.917,213.784 239.917,209.722 241.917,208.628 243.917,206.733 245.917,207.222 247.917,208.94 249.917,210.815 
		251.917,209.487 253.917,207.905 255.917,206.089 257.917,209.644 259.917,209.292 261.917,208.315 263.917,208.335 
		265.917,208.979 267.917,208.862 269.917,208.94 271.917,208.804 273.917,208.589 275.917,209.995 277.917,215.19 279.917,209.937 
		281.917,208.042 283.917,208.862 285.917,209.331 287.917,208.979 289.917,209.058 291.917,209.37 293.917,209.214 
		295.917,209.019 	"/>
	<polyline display="inline" fill="none" stroke="#0000FF" stroke-width="0.5" stroke-miterlimit="10" points="233.917,253.001 
		235.917,226.733 237.917,214.78 239.917,210.991 241.917,209.624 243.917,209.038 245.917,209.39 247.917,209.858 249.917,209.39 
		251.917,209.331 253.917,209.058 255.917,208.804 257.917,211.069 259.917,210.366 261.917,209.077 263.917,209.546 
		265.917,210.21 267.917,209.995 269.917,210.757 271.917,210.347 273.917,209.78 275.917,209.429 277.917,210.405 279.917,210.64 
		281.917,209.878 283.917,209.78 285.917,210.171 287.917,210.327 289.917,210.171 291.917,210.347 293.917,210.347 
		295.917,210.151 	"/>
	<polyline display="inline" fill="none" stroke="#00FF00" stroke-width="0.5" stroke-miterlimit="10" points="233.917,253.001 
		235.917,226.05 237.917,215.62 239.917,210.503 241.917,208.003 243.917,207.534 245.917,208.472 247.917,208.726 249.917,208.237 
		251.917,208.218 253.917,208.745 255.917,208.687 257.917,209.526 259.917,209.995 261.917,210.073 263.917,207.729 
		265.917,208.394 267.917,209.175 269.917,208.823 271.917,208.12 273.917,209.058 275.917,209.116 277.917,209.312 
		279.917,208.198 281.917,208.628 283.917,209.097 285.917,208.979 287.917,208.862 289.917,209.019 291.917,209.175 
		293.917,209.077 295.917,188.941 	"/>
	<text transform="matrix(1 0 0 1 7.667 13)" display="inline"><tspan x="0" y="0" font-family="'MyriadPro-Regular'" font-size="10">HANDLING = {}</tspan><tspan x="0" y="12" font-family="'MyriadPro-Regular'" font-size="10">HANDLING.mass = 1000</tspan><tspan x="0" y="24" font-family="'MyriadPro-Regular'" font-size="10">HANDLING.turnMass = 1000</tspan><tspan x="0" y="36" font-family="'MyriadPro-Regular'" font-size="10">HANDLING.dragCoeff = 1</tspan><tspan x="0" y="48" font-family="'MyriadPro-Regular'" font-size="10">HANDLING.centerOfMass = {0,0,0}</tspan><tspan x="0" y="60" font-family="'MyriadPro-Regular'" font-size="10">HANDLING.percentSubmerged = 10</tspan><tspan x="0" y="72" font-family="'MyriadPro-Regular'" font-size="10">HANDLING.tractionMultiplier = 0.7</tspan><tspan x="0" y="84" font-family="'MyriadPro-Regular'" font-size="10">HANDLING.tractionLoss = 0.8</tspan><tspan x="0" y="96" font-family="'MyriadPro-Regular'" font-size="10">HANDLING.tractionBias = 0.5</tspan><tspan x="0" y="108" font-family="'MyriadPro-Regular'" font-size="10">HANDLING.numberOfGears = 5</tspan><tspan x="0" y="120" font-family="'MyriadPro-Regular'" font-size="10">HANDLING.maxVelocity = 200</tspan><tspan x="0" y="132" font-family="'MyriadPro-Regular'" font-size="10">HANDLING.engineAcceleration = 5</tspan><tspan x="0" y="144" font-family="'MyriadPro-Regular'" font-size="10">HANDLING.engineInertia = 5</tspan><tspan x="0" y="156" font-family="'MyriadPro-Regular'" font-size="10">HANDLING.driveType = &quot;rwd&quot;</tspan><tspan x="0" y="168" font-family="'MyriadPro-Regular'" font-size="10">HANDLING.engineType = &quot;petrol&quot;</tspan><tspan x="0" y="180" font-family="'MyriadPro-Regular'" font-size="10">HANDLING.brakeDeceleration = 15</tspan><tspan x="0" y="192" font-family="'MyriadPro-Regular'" font-size="10">HANDLING.brakeBias = 0.7</tspan><tspan x="0" y="204" font-family="'MyriadPro-Regular'" font-size="10">HANDLING.steeringLock = 30 + 10*(n-1)</tspan></text>
	
		<text transform="matrix(1 0 0 1 253.6118 249.834)" display="inline" font-family="'CourierNewPSMT'" font-size="8" letter-spacing="-1">changes only radius</text>
</g>
<g id="tractionLoss__x28_-0.1_x29_" display="none">
	<polyline display="inline" fill="none" stroke="#FFFF00" stroke-width="0.5" stroke-miterlimit="10" points="233.917,253 
		235.917,219.524 237.917,211.928 239.917,209.271 241.917,208.373 243.917,207.357 245.917,207.221 247.917,207.924 
		249.917,208.041 251.917,208.021 253.917,208.275 255.917,207.865 257.917,208.1 259.917,208.529 261.917,208.412 263.917,208.1 
		265.917,208.373 267.917,208.549 269.917,208.842 271.917,208.725 273.917,208.217 275.917,208.725 277.917,208.881 
		279.917,208.666 281.917,208.783 283.917,208.959 285.917,208.139 287.917,208.607 289.917,209.193 291.917,208.686 
		293.917,208.881 295.917,208.412 297.917,209.857 299.917,209.604 301.917,208.568 	"/>
	<polyline display="inline" fill="none" stroke="#00FFFF" stroke-width="0.5" stroke-miterlimit="10" points="233.917,253 
		235.917,219.524 237.917,216.106 239.917,214.604 241.917,213.998 243.917,213.139 245.917,213.119 247.917,213.744 
		249.917,213.803 251.917,213.764 253.917,214.018 255.917,213.686 257.917,213.861 259.917,214.232 261.917,214.154 
		263.917,213.881 265.917,214.115 267.917,214.271 269.917,214.525 271.917,214.428 273.917,214.018 275.917,214.369 
		277.917,214.545 279.917,214.389 281.917,214.506 283.917,214.662 285.917,215.403 287.917,212.006 289.917,213.803 
		291.917,214.232 293.917,214.721 295.917,214.857 297.917,215.54 299.917,214.935 301.917,213.725 	"/>
	<polyline display="inline" fill="none" stroke="#FF00FF" stroke-width="0.5" stroke-miterlimit="10" points="233.917,253 
		235.917,219.524 237.917,220.54 239.917,220.13 241.917,219.114 243.917,218.802 245.917,218.997 247.917,219.388 249.917,218.177 
		251.917,218.763 253.917,221.497 255.917,219.388 257.917,219.075 259.917,219.31 261.917,220.501 263.917,219.896 265.917,219.31 
		267.917,219.896 269.917,220.521 271.917,220.169 273.917,219.759 275.917,220.169 277.917,220.442 279.917,220.169 
		281.917,223.958 283.917,220.989 285.917,220.54 287.917,219.856 289.917,220.54 291.917,220.306 293.917,220.677 295.917,219.388 
		297.917,220.091 299.917,220.657 301.917,220.208 	"/>
	<polyline display="inline" fill="none" stroke="#0000FF" stroke-width="0.5" stroke-miterlimit="10" points="233.917,253 
		235.917,224.271 237.917,227.493 239.917,227.337 241.917,227.103 243.917,227.103 245.917,227.142 247.917,227.728 
		249.917,227.532 251.917,227.415 253.917,227.825 255.917,227.454 257.917,227.024 259.917,228.196 261.917,228.782 
		263.917,227.532 265.917,227.532 267.917,228.353 269.917,228.392 271.917,227.688 273.917,227.415 275.917,229.017 
		277.917,228.802 279.917,228.177 281.917,228.118 283.917,227.923 285.917,228.665 287.917,227.591 289.917,228.431 
		291.917,228.431 293.917,228.626 295.917,228.626 297.917,228.685 299.917,228.431 301.917,228.001 	"/>
	<polyline display="inline" fill="none" stroke="#00FF00" stroke-width="0.5" stroke-miterlimit="10" points="233.917,253 
		235.917,219.563 237.917,228.743 239.917,229.329 241.917,231.087 243.917,230.735 245.917,230.54 247.917,231.126 
		249.917,231.165 251.917,230.97 253.917,231.282 255.917,231.048 257.917,226.048 259.917,231.575 261.917,231.556 
		263.917,232.142 265.917,231.106 267.917,231.224 269.917,231.673 271.917,231.263 273.917,231.731 275.917,231.751 
		277.917,231.653 279.917,231.399 281.917,231.673 283.917,231.79 285.917,230.696 287.917,231.282 289.917,232.493 291.917,231.79 
		293.917,231.302 295.917,231.751 297.917,232.103 299.917,231.79 301.917,230.501 	"/>
	<text transform="matrix(1 0 0 1 7.667 13)" display="inline"><tspan x="0" y="0" font-family="'MyriadPro-Regular'" font-size="10">HANDLING = {}</tspan><tspan x="0" y="12" font-family="'MyriadPro-Regular'" font-size="10">HANDLING.mass = 1000</tspan><tspan x="0" y="24" font-family="'MyriadPro-Regular'" font-size="10">HANDLING.turnMass = 1000</tspan><tspan x="0" y="36" font-family="'MyriadPro-Regular'" font-size="10">HANDLING.dragCoeff = 1</tspan><tspan x="0" y="48" font-family="'MyriadPro-Regular'" font-size="10">HANDLING.centerOfMass = {0,0,0}</tspan><tspan x="0" y="60" font-family="'MyriadPro-Regular'" font-size="10">HANDLING.percentSubmerged = 10</tspan><tspan x="0" y="72" font-family="'MyriadPro-Regular'" font-size="10">HANDLING.tractionMultiplier = 0.7</tspan><tspan x="0" y="84" font-family="'MyriadPro-Regular'" font-size="10">HANDLING.tractionLoss = 0.8 - 0.1*(n-1)</tspan><tspan x="0" y="96" font-family="'MyriadPro-Regular'" font-size="10">HANDLING.tractionBias = 0.5</tspan><tspan x="0" y="108" font-family="'MyriadPro-Regular'" font-size="10">HANDLING.numberOfGears = 5</tspan><tspan x="0" y="120" font-family="'MyriadPro-Regular'" font-size="10">HANDLING.maxVelocity = 200</tspan><tspan x="0" y="132" font-family="'MyriadPro-Regular'" font-size="10">HANDLING.engineAcceleration = 5</tspan><tspan x="0" y="144" font-family="'MyriadPro-Regular'" font-size="10">HANDLING.engineInertia = 5</tspan><tspan x="0" y="156" font-family="'MyriadPro-Regular'" font-size="10">HANDLING.driveType = &quot;rwd&quot;</tspan><tspan x="0" y="168" font-family="'MyriadPro-Regular'" font-size="10">HANDLING.engineType = &quot;petrol&quot;</tspan><tspan x="0" y="180" font-family="'MyriadPro-Regular'" font-size="10">HANDLING.brakeDeceleration = 15</tspan><tspan x="0" y="192" font-family="'MyriadPro-Regular'" font-size="10">HANDLING.brakeBias = 0.7</tspan><tspan x="0" y="204" font-family="'MyriadPro-Regular'" font-size="10">HANDLING.steeringLock = 30</tspan></text>
	
		<text transform="matrix(1 0 0 1 271.7446 249.5)" display="inline" font-family="'CourierNewPSMT'" font-size="8" letter-spacing="-1">lowered tractionLoss cause of unexpected skid</text>
</g>
</svg>